<svg id="visual" viewBox="0 0 900 600" width="900" height="600" xmlns="http://www.w3.org/2000/svg" xmlns:xlink="http://www.w3.org/1999/xlink" version="1.1"><g transform="translate(445.7100429796179 343.1717840554834)"><path d="M92.9 -142C126.9 -103.1 165.7 -84.7 193.8 -50.6C221.9 -16.5 239.3 33.5 226.5 73.8C213.7 114.1 170.6 144.8 127.8 157.3C85 169.7 42.5 163.9 0.9 162.6C-40.8 161.4 -81.5 164.9 -119.7 150.9C-157.9 137 -193.6 105.7 -210.4 65.6C-227.3 25.4 -225.4 -23.6 -208.8 -65.8C-192.3 -108 -161.1 -143.4 -123.9 -181.3C-86.6 -219.2 -43.3 -259.6 -7 -250C29.4 -240.5 58.8 -180.9 92.9 -142" fill="#00c8a4"></path></g></svg>