<svg version="1.2" xmlns="http://www.w3.org/2000/svg" viewBox="0 0 506 554" width="506" height="554">
	<title>blob-three-svg</title>
	<style>
		.s0 { fill: #00c8a4 } 
	</style>
	<g id="Layer">
		<path id="Layer" class="s0" d="m435.7 30.2c49.6 28.9 89.4 74.6 59.7 126.1-29.8 51.5-129.1 108.9-170.7 142.2-41.5 33.3-25.4 42.7-15.5 59.8 10 17.2 13.6 42.2 5.5 86.1-8 43.8-27.9 106.5-49.3 109.2-21.4 2.7-44.4-54.4-80.3-82.2-36-27.7-84.9-26.1-104.2-46-19.3-19.9-9.1-61.4-27.3-113.4-18.2-52-64.8-114.5-50.4-143.1 14.3-28.6 89.5-23.2 143.7-49.5 54.1-26.2 87.1-84.1 133.3-107 46.3-23 105.8-11 155.5 17.8z"/>
	</g>
</svg>