<svg version="1.2" xmlns="http://www.w3.org/2000/svg" viewBox="0 0 454 418" width="454" height="418">
	<title>blob-two-svg</title>
	<style>
		.s0 { fill: #00c8a4 } 
	</style>
	<g id="Layer">
		<path id="Layer" class="s0" d="m315.6 110.2c34 38.9 72.8 57.3 100.9 91.4 28.1 34.1 45.5 84.1 32.7 124.4-12.8 40.3-55.9 71-98.7 83.5-42.8 12.4-85.3 6.6-126.9 5.3-41.7-1.2-82.4 2.3-120.6-11.7-38.2-13.9-73.9-45.2-90.7-85.3-16.9-40.2-15-89.2 1.6-131.4 16.5-42.2 47.7-77.6 84.9-115.5 37.3-37.9 80.6-78.3 116.9-68.7 36.4 9.5 65.8 69.1 99.9 108z"/>
	</g>
</svg>